<svg id="svg-close" viewBox="0 0 8 8" fill="none" xmlns="http://www.w3.org/2000/svg">
<path d="M0.283203 7.25049C0.0634766 7.03516 0.0722656 6.66162 0.278809 6.45508L2.89795 3.83154L0.278809 1.2124C0.0722656 1.00586 0.0678711 0.636719 0.283203 0.416992C0.498535 0.197266 0.87207 0.206055 1.08301 0.412598L3.70215 3.03174L6.31689 0.412598C6.53223 0.197266 6.89697 0.20166 7.1167 0.416992C7.33643 0.636719 7.33643 1.00146 7.12109 1.2168L4.50635 3.83154L7.12109 6.45068C7.33643 6.66602 7.33203 7.03076 7.1167 7.25049C6.90137 7.47021 6.53223 7.47021 6.31689 7.25488L3.70215 4.63574L1.08301 7.25488C0.87207 7.46143 0.50293 7.47021 0.283203 7.25049Z" fill="currentColor"/>
</svg>
