<svg id="svg-clubs" viewBox="0 0 14 14" fill="none" xmlns="http://www.w3.org/2000/svg">
<path d="M9.22882 5.63618C9.48621 5.23779 9.6352 4.76565 9.6352 4.25941C9.6352 2.83486 8.45535 1.68 6.9999 1.68C5.54445 1.68 4.36461 2.83486 4.36461 4.25941C4.36461 4.76565 4.51359 5.23779 4.77098 5.63618H4.71662C4.49928 5.57943 4.27084 5.54912 4.0352 5.54912C2.57974 5.54912 1.3999 6.70398 1.3999 8.12853C1.3999 9.55308 2.57974 10.7079 4.0352 10.7079C4.91571 10.7079 5.69532 10.2852 6.17388 9.63589C6.15297 9.99012 5.90036 11.1858 4.75989 12.32C4.75989 12.32 5.90097 12.0416 6.9999 12.0416C8.09884 12.0416 9.23992 12.32 9.23992 12.32C8.09534 11.1817 7.88648 10.0435 7.8484 9.66604C8.32869 10.2983 9.09777 10.7079 9.96461 10.7079C11.4201 10.7079 12.5999 9.55308 12.5999 8.12853C12.5999 6.70398 11.4201 5.54912 9.96461 5.54912C9.72897 5.54912 9.50053 5.57943 9.28319 5.63618H9.22882Z" fill="url(#paint0_linear_326_44562)"/>
<defs>
<linearGradient id="paint0_linear_326_44562" x1="0.999878" y1="2.00007" x2="12.9999" y2="12.0001" gradientUnits="userSpaceOnUse">
<stop stop-color="#E2E2E2"/>
<stop offset="1" stop-color="#646464"/>
</linearGradient>
</defs>
</svg>
