<svg id="svg-diamonds-big" viewBox="0 0 40 40" fill="none" xmlns="http://www.w3.org/2000/svg">
<path d="M19.9998 4.8C19.9998 4.8 23.0137 9.76497 25.2265 12.7619C27.3999 15.7055 31.1998 20 31.1998 20C31.1998 20 27.3999 24.2945 25.2265 27.2381C23.0137 30.235 19.9998 35.2 19.9998 35.2C19.9998 35.2 16.9859 30.235 14.7731 27.2381C12.5997 24.2945 8.7998 20 8.7998 20C8.7998 20 12.5997 15.7055 14.7731 12.7619C16.9859 9.76497 19.9998 4.8 19.9998 4.8Z" fill="url(#paint0_linear_2022_1211)"/>
<path d="M29 30L27 28" stroke="url(#paint1_linear_2022_1211)" stroke-width="0.5" stroke-linecap="round"/>
<path d="M26.5 30.5L26 29" stroke="url(#paint2_linear_2022_1211)" stroke-width="0.5" stroke-linecap="round"/>
<path d="M29.5 27.5L28 27" stroke="url(#paint3_linear_2022_1211)" stroke-width="0.5" stroke-linecap="round"/>
<path d="M10.5 10.5L12.5 12.5" stroke="url(#paint4_linear_2022_1211)" stroke-width="0.5" stroke-linecap="round"/>
<path d="M13 10L13.5 11.5" stroke="url(#paint5_linear_2022_1211)" stroke-width="0.5" stroke-linecap="round"/>
<path d="M10 13L11.5 13.5" stroke="url(#paint6_linear_2022_1211)" stroke-width="0.5" stroke-linecap="round"/>
<path d="M10.5 30L12.5 28" stroke="url(#paint7_linear_2022_1211)" stroke-width="0.5" stroke-linecap="round"/>
<path d="M10 27.5L11.5 27" stroke="url(#paint8_linear_2022_1211)" stroke-width="0.5" stroke-linecap="round"/>
<path d="M13 30.5L13.5 29" stroke="url(#paint9_linear_2022_1211)" stroke-width="0.5" stroke-linecap="round"/>
<path d="M29 10.5L27 12.5" stroke="url(#paint10_linear_2022_1211)" stroke-width="0.5" stroke-linecap="round"/>
<path d="M29.5 13L28 13.5" stroke="url(#paint11_linear_2022_1211)" stroke-width="0.5" stroke-linecap="round"/>
<path d="M26.5 10L26 11.5" stroke="url(#paint12_linear_2022_1211)" stroke-width="0.5" stroke-linecap="round"/>
<defs>
<linearGradient id="paint0_linear_2022_1211" x1="7.99976" y1="5.71448" x2="38.3417" y2="23.414" gradientUnits="userSpaceOnUse">
<stop stop-color="#FF7A7A"/>
<stop offset="1" stop-color="#841F1F"/>
</linearGradient>
<linearGradient id="paint1_linear_2022_1211" x1="27" y1="28" x2="29" y2="30" gradientUnits="userSpaceOnUse">
<stop stop-color="#FF7A7A"/>
<stop offset="1" stop-color="#FF7A7A" stop-opacity="0"/>
</linearGradient>
<linearGradient id="paint2_linear_2022_1211" x1="26" y1="29" x2="26.5" y2="30.5" gradientUnits="userSpaceOnUse">
<stop stop-color="#FF7A7A"/>
<stop offset="1" stop-color="#FF7A7A" stop-opacity="0"/>
</linearGradient>
<linearGradient id="paint3_linear_2022_1211" x1="28" y1="27" x2="29.5" y2="27.5" gradientUnits="userSpaceOnUse">
<stop stop-color="#FF7A7A"/>
<stop offset="1" stop-color="#FF7A7A" stop-opacity="0"/>
</linearGradient>
<linearGradient id="paint4_linear_2022_1211" x1="12.5" y1="12.5" x2="10.5" y2="10.5" gradientUnits="userSpaceOnUse">
<stop stop-color="#FF7A7A"/>
<stop offset="1" stop-color="#FF7A7A" stop-opacity="0"/>
</linearGradient>
<linearGradient id="paint5_linear_2022_1211" x1="13.5" y1="11.5" x2="13" y2="10" gradientUnits="userSpaceOnUse">
<stop stop-color="#FF7A7A"/>
<stop offset="1" stop-color="#FF7A7A" stop-opacity="0"/>
</linearGradient>
<linearGradient id="paint6_linear_2022_1211" x1="11.5" y1="13.5" x2="10" y2="13" gradientUnits="userSpaceOnUse">
<stop stop-color="#FF7A7A"/>
<stop offset="1" stop-color="#FF7A7A" stop-opacity="0"/>
</linearGradient>
<linearGradient id="paint7_linear_2022_1211" x1="12.5" y1="28" x2="10.5" y2="30" gradientUnits="userSpaceOnUse">
<stop stop-color="#FF7A7A"/>
<stop offset="1" stop-color="#FF7A7A" stop-opacity="0"/>
</linearGradient>
<linearGradient id="paint8_linear_2022_1211" x1="11.5" y1="27" x2="10" y2="27.5" gradientUnits="userSpaceOnUse">
<stop stop-color="#FF7A7A"/>
<stop offset="1" stop-color="#FF7A7A" stop-opacity="0"/>
</linearGradient>
<linearGradient id="paint9_linear_2022_1211" x1="13.5" y1="29" x2="13" y2="30.5" gradientUnits="userSpaceOnUse">
<stop stop-color="#FF7A7A"/>
<stop offset="1" stop-color="#FF7A7A" stop-opacity="0"/>
</linearGradient>
<linearGradient id="paint10_linear_2022_1211" x1="27" y1="12.5" x2="29" y2="10.5" gradientUnits="userSpaceOnUse">
<stop stop-color="#FF7A7A"/>
<stop offset="1" stop-color="#FF7A7A" stop-opacity="0"/>
</linearGradient>
<linearGradient id="paint11_linear_2022_1211" x1="28" y1="13.5" x2="29.5" y2="13" gradientUnits="userSpaceOnUse">
<stop stop-color="#FF7A7A"/>
<stop offset="1" stop-color="#FF7A7A" stop-opacity="0"/>
</linearGradient>
<linearGradient id="paint12_linear_2022_1211" x1="26" y1="11.5" x2="26.5" y2="10" gradientUnits="userSpaceOnUse">
<stop stop-color="#FF7A7A"/>
<stop offset="1" stop-color="#FF7A7A" stop-opacity="0"/>
</linearGradient>
</defs>
</svg>
