<svg id="svg-star-silver" viewBox="0 0 11 10" fill="none" xmlns="http://www.w3.org/2000/svg">
<g clip-path="url(#clip0_64_3067)">
<path fill-rule="evenodd" clip-rule="evenodd" d="M5.18 8.12678L2.94251 9.40611C2.70985 9.53911 2.4057 9.47091 2.26318 9.25378C2.19357 9.14771 2.17282 9.01991 2.20563 8.89938L2.55199 7.62698C2.67702 7.16765 3.01378 6.78371 3.47152 6.57859L5.9125 5.48475C6.0263 5.43376 6.07427 5.30632 6.01963 5.20011C5.97538 5.11409 5.87532 5.06595 5.77458 5.08223L3.05745 5.52127C2.50513 5.61052 1.93872 5.46817 1.50908 5.13213L0.65072 4.46075C0.441601 4.29719 0.414143 4.00637 0.589391 3.81119C0.674625 3.71626 0.797194 3.65733 0.929491 3.64767L3.55205 3.45611C3.73733 3.44257 3.89879 3.33314 3.96992 3.17289L4.98165 0.893446C5.08608 0.658181 5.37507 0.546469 5.62714 0.64393C5.74817 0.690726 5.84433 0.78048 5.89447 0.893446L6.90621 3.17289C6.97733 3.33314 7.1388 3.44257 7.32408 3.45611L9.96107 3.64872C10.2331 3.66859 10.4363 3.8905 10.415 4.14438C10.4048 4.26651 10.3429 4.37981 10.243 4.45929L8.23193 6.0595C8.09029 6.17215 8.02857 6.34948 8.07207 6.5183L8.69036 8.91551C8.75422 9.16311 8.59093 9.41211 8.32572 9.47171C8.19822 9.50038 8.06379 9.48051 7.952 9.41658L5.69613 8.12678C5.53776 8.03625 5.33836 8.03625 5.18 8.12678Z" fill="url(#paint0_linear_64_3067)"/>
</g>
<defs>
<linearGradient id="paint0_linear_64_3067" x1="0.43809" y1="0.799963" x2="10.0642" y2="9.99155" gradientUnits="userSpaceOnUse">
<stop stop-color="#C6C7CF"/>
<stop offset="1" stop-color="#6C6E7E"/>
</linearGradient>
<clipPath id="clip0_64_3067">
<rect width="10" height="10" fill="white" transform="translate(0.43811)"/>
</clipPath>
</defs>
</svg>
