<svg id="svg-arrow-right" viewBox="0 0 11 10" fill="none" xmlns="http://www.w3.org/2000/svg">
<mask id="mask0_2001_1107" style="mask-type:alpha" maskUnits="userSpaceOnUse" x="0" y="0" width="11" height="10">
<rect x="0.93811" width="10" height="10" fill="#D9D9D9"/>
</mask>
<g mask="url(#mask0_2001_1107)">
<path d="M8.05139 5.17969C8.05139 5.33984 7.9967 5.47266 7.8678 5.59766L4.85999 8.53906C4.75842 8.64062 4.63733 8.69141 4.4928 8.69141C4.19983 8.69141 3.96155 8.45703 3.96155 8.16406C3.96155 8.01562 4.02405 7.88672 4.12952 7.78125L6.80139 5.17578L4.12952 2.57812C4.02405 2.47266 3.96155 2.33984 3.96155 2.19531C3.96155 1.90234 4.19983 1.67188 4.4928 1.67188C4.63733 1.67188 4.75842 1.71875 4.85999 1.82031L7.8678 4.76172C7.9928 4.88672 8.05139 5.01953 8.05139 5.17969Z" fill="#39393D"/>
</g>
</svg>
