<svg viewBox="0 0 40 6" fill="none" xmlns="http://www.w3.org/2000/svg">
<path d="M34.4381 3.5L39.4381 5.88676L39.4381 0.113252L34.4381 2.5L34.4381 3.5ZM5.43811 2.5L0.438111 0.113249L0.43811 5.88675L5.43811 3.5L5.43811 2.5ZM37.0006 2.5C36.7245 2.5 36.5006 2.72386 36.5006 3C36.5006 3.27615 36.7245 3.5 37.0006 3.5L37.0006 2.5ZM32.1256 3.5C32.4018 3.5 32.6256 3.27615 32.6256 3C32.6256 2.72386 32.4018 2.5 32.1256 2.5L32.1256 3.5ZM27.2506 2.5C26.9745 2.5 26.7506 2.72386 26.7506 3C26.7506 3.27615 26.9745 3.5 27.2506 3.5L27.2506 2.5ZM22.3756 3.5C22.6518 3.5 22.8756 3.27614 22.8756 3C22.8756 2.72386 22.6518 2.5 22.3756 2.5L22.3756 3.5ZM17.5006 2.5C17.2245 2.5 17.0006 2.72386 17.0006 3C17.0006 3.27614 17.2245 3.5 17.5006 3.5L17.5006 2.5ZM12.6256 3.5C12.9018 3.5 13.1256 3.27614 13.1256 3C13.1256 2.72386 12.9018 2.5 12.6256 2.5L12.6256 3.5ZM7.75061 2.5C7.47447 2.5 7.25061 2.72386 7.25061 3C7.25061 3.27614 7.47447 3.5 7.75061 3.5L7.75061 2.5ZM2.87561 3.5C3.15175 3.5 3.37561 3.27614 3.37561 3C3.37561 2.72386 3.15175 2.5 2.87561 2.5L2.87561 3.5ZM32.1256 2.5L27.2506 2.5L27.2506 3.5L32.1256 3.5L32.1256 2.5ZM22.3756 2.5L17.5006 2.5L17.5006 3.5L22.3756 3.5L22.3756 2.5ZM12.6256 2.5L7.75061 2.5L7.75061 3.5L12.6256 3.5L12.6256 2.5Z" fill="#6756D0"/>
</svg>
