<svg id="svg-hearts-big" viewBox="0 0 40 40" fill="none" xmlns="http://www.w3.org/2000/svg">
<path d="M32.7976 19.2023C34.7421 17.743 36 15.4183 36 12.8C36 8.38163 32.4183 4.79999 28 4.79999C23.5817 4.79999 20 8.38163 20 12.8C20 8.38163 16.4183 4.79999 12 4.79999C7.58174 4.79999 4 8.38163 4 12.8C4 15.4183 5.25791 17.743 7.20244 19.2023C8.13955 20.1392 9.33975 21.1551 10.6284 22.2455C14.8416 25.8111 20 30.1767 20 35.2C20 29.9394 24.0975 26.5814 28.3338 23.1096C29.866 21.8539 31.4163 20.5832 32.7976 19.2023Z" fill="url(#paint0_linear_2022_1212)"/>
<path d="M17 4V4C18.2883 4.64417 19.2955 5.73875 19.8305 7.07614L20 7.5L20.1695 7.07614C20.7045 5.73875 21.7117 4.64417 23 4V4" stroke="url(#paint1_linear_2022_1212)" stroke-width="0.5" stroke-linecap="round"/>
<path d="M18 3L18.5697 3.37983C19.1793 3.78623 19.6723 4.34469 20 5V5V5C20.3277 4.34469 20.8207 3.78623 21.4303 3.37983L22 3" stroke="url(#paint2_linear_2022_1212)" stroke-width="0.5" stroke-linecap="round"/>
<path d="M29 29L27 27" stroke="url(#paint3_linear_2022_1212)" stroke-width="0.5" stroke-linecap="round"/>
<path d="M26.5 29.5L26 28" stroke="url(#paint4_linear_2022_1212)" stroke-width="0.5" stroke-linecap="round"/>
<path d="M29.5 26.5L28 26" stroke="url(#paint5_linear_2022_1212)" stroke-width="0.5" stroke-linecap="round"/>
<path d="M10.5 29L12.5 27" stroke="url(#paint6_linear_2022_1212)" stroke-width="0.5" stroke-linecap="round"/>
<path d="M10 26.5L11.5 26" stroke="url(#paint7_linear_2022_1212)" stroke-width="0.5" stroke-linecap="round"/>
<path d="M13 29.5L13.5 28" stroke="url(#paint8_linear_2022_1212)" stroke-width="0.5" stroke-linecap="round"/>
<defs>
<linearGradient id="paint0_linear_2022_1212" x1="2.85707" y1="5.71447" x2="37.1428" y2="34.2859" gradientUnits="userSpaceOnUse">
<stop stop-color="#FF7A7A"/>
<stop offset="1" stop-color="#841F1F"/>
</linearGradient>
<linearGradient id="paint1_linear_2022_1212" x1="20" y1="4" x2="20" y2="7.5" gradientUnits="userSpaceOnUse">
<stop stop-color="#FF7A7A" stop-opacity="0"/>
<stop offset="1" stop-color="#FF7A7A"/>
</linearGradient>
<linearGradient id="paint2_linear_2022_1212" x1="20" y1="3" x2="20" y2="5" gradientUnits="userSpaceOnUse">
<stop stop-color="#FF7A7A" stop-opacity="0"/>
<stop offset="1" stop-color="#FF7A7A"/>
</linearGradient>
<linearGradient id="paint3_linear_2022_1212" x1="27" y1="27" x2="29" y2="29" gradientUnits="userSpaceOnUse">
<stop stop-color="#FF7A7A"/>
<stop offset="1" stop-color="#FF7A7A" stop-opacity="0"/>
</linearGradient>
<linearGradient id="paint4_linear_2022_1212" x1="26" y1="28" x2="26.5" y2="29.5" gradientUnits="userSpaceOnUse">
<stop stop-color="#FF7A7A"/>
<stop offset="1" stop-color="#FF7A7A" stop-opacity="0"/>
</linearGradient>
<linearGradient id="paint5_linear_2022_1212" x1="28" y1="26" x2="29.5" y2="26.5" gradientUnits="userSpaceOnUse">
<stop stop-color="#FF7A7A"/>
<stop offset="1" stop-color="#FF7A7A" stop-opacity="0"/>
</linearGradient>
<linearGradient id="paint6_linear_2022_1212" x1="12.5" y1="27" x2="10.5" y2="29" gradientUnits="userSpaceOnUse">
<stop stop-color="#FF7A7A"/>
<stop offset="1" stop-color="#FF7A7A" stop-opacity="0"/>
</linearGradient>
<linearGradient id="paint7_linear_2022_1212" x1="11.5" y1="26" x2="10" y2="26.5" gradientUnits="userSpaceOnUse">
<stop stop-color="#FF7A7A"/>
<stop offset="1" stop-color="#FF7A7A" stop-opacity="0"/>
</linearGradient>
<linearGradient id="paint8_linear_2022_1212" x1="13.5" y1="28" x2="13" y2="29.5" gradientUnits="userSpaceOnUse">
<stop stop-color="#FF7A7A"/>
<stop offset="1" stop-color="#FF7A7A" stop-opacity="0"/>
</linearGradient>
</defs>
</svg>
