<svg id="svg-hearts" viewBox="0 0 14 14" fill="none" xmlns="http://www.w3.org/2000/svg">
<path d="M11.479 6.72081C12.1596 6.21003 12.5999 5.39642 12.5999 4.47999C12.5999 2.93357 11.3463 1.67999 9.7999 1.67999C8.25351 1.67999 6.9999 2.93357 6.9999 4.47999C6.9999 2.93357 5.74629 1.67999 4.1999 1.67999C2.65351 1.67999 1.3999 2.93357 1.3999 4.47999C1.3999 5.39642 1.84017 6.21003 2.52076 6.72081C2.84875 7.04873 3.26881 7.40427 3.71985 7.78592C5.19446 9.03389 6.9999 10.5619 6.9999 12.32C6.9999 10.4788 8.43401 9.3035 9.91673 8.08834C10.453 7.64886 10.9956 7.20411 11.479 6.72081Z" fill="url(#paint0_linear_326_44062)"/>
<defs>
<linearGradient id="paint0_linear_326_44062" x1="0.999878" y1="2.00006" x2="12.9999" y2="12.0001" gradientUnits="userSpaceOnUse">
<stop stop-color="#FF7A7A"/>
<stop offset="1" stop-color="#841F1F"/>
</linearGradient>
</defs>
</svg>
