<svg id="svg-network-default" viewBox="0 0 40 40" fill="none" xmlns="http://www.w3.org/2000/svg">
<mask id="mask0_2003_1126" style="mask-type:alpha" maskUnits="userSpaceOnUse" x="0" y="0" width="40" height="40">
<rect width="40" height="40" fill="#D9D9D9"/>
</mask>
<g mask="url(#mask0_2003_1126)">
<g filter="url(#filter0_di_2003_1126)">
<path d="M19.5508 31.9922C13.0234 31.9922 7.59766 26.5664 7.59766 20.0391C7.59766 13.5 13.0117 8.08594 19.5391 8.08594C26.0781 8.08594 31.5039 13.5 31.5039 20.0391C31.5039 26.5664 26.0898 31.9922 19.5508 31.9922ZM12.543 12.4453C13.1406 12.8672 13.8672 13.2188 14.6992 13.4883C15.2148 12.0586 15.9062 10.8984 16.7148 10.0781C15.1445 10.5352 13.7148 11.3555 12.543 12.4453ZM22.3984 10.0898C23.1953 10.9102 23.8867 12.0703 24.4023 13.4883C25.2344 13.2188 25.9609 12.8789 26.5586 12.457C25.375 11.3672 23.957 10.5469 22.3984 10.0898ZM16.2109 13.875C17.0078 14.0156 17.8633 14.1094 18.7891 14.1445V10.3477C17.7812 10.793 16.8672 12.082 16.2109 13.875ZM20.3242 10.3477V14.1445C21.2383 14.1094 22.0938 14.0156 22.8906 13.875C22.2344 12.082 21.3203 10.793 20.3242 10.3477ZM9.21484 19.2656H13.6445C13.7031 17.6953 13.9141 16.2305 14.2539 14.918C13.1641 14.5664 12.2266 14.1094 11.5 13.5586C10.2109 15.1523 9.37891 17.1328 9.21484 19.2656ZM25.457 19.2656H29.8867C29.7227 17.1328 28.8906 15.1523 27.5898 13.5703C26.875 14.1094 25.9375 14.5664 24.8477 14.918C25.1875 16.2305 25.3984 17.6953 25.457 19.2656ZM20.3242 19.2656H23.8867C23.8281 17.8594 23.6406 16.5234 23.3359 15.3164C22.3867 15.5156 21.3789 15.6445 20.3242 15.6797V19.2656ZM15.2148 19.2656H18.7891V15.6797C17.7227 15.6445 16.7148 15.5156 15.7656 15.3164C15.4727 16.5234 15.2734 17.8594 15.2148 19.2656ZM9.21484 20.8008C9.37891 22.957 10.2227 24.9492 11.5352 26.5547C12.25 26.0156 13.1758 25.5586 14.2539 25.207C13.9141 23.8828 13.7031 22.4062 13.6445 20.8008H9.21484ZM15.2148 20.8008C15.2617 22.2305 15.4727 23.5898 15.7891 24.8086C16.7266 24.6211 17.7344 24.4922 18.7891 24.457V20.8008H15.2148ZM20.3242 24.457C21.3672 24.4922 22.3867 24.6211 23.3125 24.8086C23.6289 23.5898 23.8398 22.2305 23.8867 20.8008H20.3242V24.457ZM24.8477 25.207C25.9258 25.5586 26.8516 26.0156 27.5664 26.5547C28.8789 24.9492 29.7227 22.957 29.8867 20.8008H25.457C25.3984 22.4062 25.1875 23.8828 24.8477 25.207ZM20.3242 25.9922V29.7422C21.3086 29.2969 22.2109 28.0078 22.8672 26.2617C22.082 26.1094 21.2266 26.0273 20.3242 25.9922ZM16.2344 26.2617C16.8906 28.0078 17.793 29.2969 18.7891 29.7422V25.9922C17.875 26.0273 17.0195 26.1094 16.2344 26.2617ZM24.3906 26.6367C23.875 28.0312 23.1953 29.1797 22.4102 29.9883C23.957 29.5312 25.3516 28.7227 26.5234 27.6562C25.9258 27.2461 25.2109 26.9062 24.3906 26.6367ZM12.5781 27.6562C13.75 28.7227 15.1562 29.5312 16.7031 29.9883C15.9062 29.1797 15.2266 28.0312 14.7109 26.6367C13.8906 26.9062 13.1758 27.2461 12.5781 27.6562Z" fill="#49474E"/>
</g>
</g>
<defs>
<filter id="filter0_di_2003_1126" x="5.59766" y="6.08594" width="31.9062" height="31.9062" filterUnits="userSpaceOnUse" color-interpolation-filters="sRGB">
<feFlood flood-opacity="0" result="BackgroundImageFix"/>
<feColorMatrix in="SourceAlpha" type="matrix" values="0 0 0 0 0 0 0 0 0 0 0 0 0 0 0 0 0 0 127 0" result="hardAlpha"/>
<feOffset dx="2" dy="2"/>
<feGaussianBlur stdDeviation="2"/>
<feComposite in2="hardAlpha" operator="out"/>
<feColorMatrix type="matrix" values="0 0 0 0 0 0 0 0 0 0 0 0 0 0 0 0 0 0 0.25 0"/>
<feBlend mode="normal" in2="BackgroundImageFix" result="effect1_dropShadow_2003_1126"/>
<feBlend mode="normal" in="SourceGraphic" in2="effect1_dropShadow_2003_1126" result="shape"/>
<feColorMatrix in="SourceAlpha" type="matrix" values="0 0 0 0 0 0 0 0 0 0 0 0 0 0 0 0 0 0 127 0" result="hardAlpha"/>
<feOffset dy="1"/>
<feGaussianBlur stdDeviation="1"/>
<feComposite in2="hardAlpha" operator="arithmetic" k2="-1" k3="1"/>
<feColorMatrix type="matrix" values="0 0 0 0 0.663753 0 0 0 0 0.663753 0 0 0 0 0.663753 0 0 0 0.5 0"/>
<feBlend mode="normal" in2="shape" result="effect2_innerShadow_2003_1126"/>
</filter>
</defs>
</svg>
