<svg id="svg-spades" viewBox="0 0 14 14" fill="none" xmlns="http://www.w3.org/2000/svg">
<path d="M2.24023 8.4509C2.24023 7.65944 2.61446 6.95678 3.19296 6.51565C3.60388 6.09825 4.06509 5.71415 4.52093 5.3346C5.78124 4.28515 7.00023 3.27011 7.00023 1.67999C7.00023 3.19838 8.53486 4.51799 9.78828 5.59578C10.1717 5.92539 10.5287 6.23244 10.8075 6.51565C11.386 6.95678 11.7602 7.65944 11.7602 8.4509C11.7602 9.78645 10.6947 10.8691 9.38023 10.8691C8.90145 10.8691 8.19023 10.6273 7.71423 9.90181C7.71423 9.90181 7.71423 11.1109 8.90423 12.32C8.90423 12.32 7.93432 12.0782 7.00023 12.0782C6.06615 12.0782 5.09623 12.32 5.09623 12.32C6.28623 11.1109 6.33903 9.82135 6.28623 9.90181C5.81023 10.6273 5.09902 10.8691 4.62023 10.8691C3.3058 10.8691 2.24023 9.78645 2.24023 8.4509Z" fill="url(#paint0_linear_326_44301)"/>
<defs>
<linearGradient id="paint0_linear_326_44301" x1="1.90021" y1="2.00006" x2="13.4091" y2="10.1522" gradientUnits="userSpaceOnUse">
<stop stop-color="#E2E2E2"/>
<stop offset="1" stop-color="#646464"/>
</linearGradient>
</defs>
</svg>
