<svg id="svg-star-gradient" viewBox="0 0 19 19" fill="none" xmlns="http://www.w3.org/2000/svg">
<g style="mix-blend-mode:overlay">
<path fill-rule="evenodd" clip-rule="evenodd" d="M9.00963 15.4409L4.75841 17.8717C4.31636 18.1244 3.73848 17.9948 3.46769 17.5822C3.33542 17.3807 3.29599 17.1379 3.35833 16.9089L4.01642 14.4913C4.25397 13.6186 4.89383 12.8891 5.76352 12.4994L10.4014 10.4211C10.6176 10.3242 10.7087 10.0821 10.6049 9.88025C10.5209 9.71681 10.3307 9.62536 10.1393 9.65629L4.9768 10.4905C3.92738 10.66 2.8512 10.3896 2.0349 9.7511L0.404008 8.47548C0.00668085 8.1647 -0.0454898 7.61214 0.287482 7.24132C0.449427 7.06094 0.682308 6.94897 0.933672 6.93061L5.91653 6.56665C6.26856 6.54094 6.57534 6.33301 6.71048 6.02855L8.63278 1.6976C8.83118 1.25059 9.38027 1.03834 9.8592 1.22352C10.0892 1.31243 10.2719 1.48296 10.3671 1.6976L12.2894 6.02855C12.4246 6.33301 12.7314 6.54094 13.0834 6.56665L18.0937 6.93262C18.6105 6.97036 18.9966 7.392 18.9561 7.87437C18.9367 8.10641 18.8191 8.32169 18.6293 8.47269L14.8083 11.5131C14.5392 11.7271 14.4219 12.0641 14.5046 12.3848L15.6793 16.9395C15.8007 17.41 15.4904 17.8831 14.9865 17.9963C14.7443 18.0508 14.4888 18.013 14.2764 17.8916L9.99029 15.4409C9.68939 15.2689 9.31052 15.2689 9.00963 15.4409Z" fill="url(#paint0_linear_2004_1111)"/>
</g>
<g style="mix-blend-mode:overlay" clip-path="url(#clip0_2004_1111)">
<path fill-rule="evenodd" clip-rule="evenodd" d="M9.00963 15.4409L4.75841 17.8717C4.31636 18.1244 3.73848 17.9948 3.46769 17.5822C3.33542 17.3807 3.29599 17.1379 3.35833 16.9089L4.01642 14.4913C4.25397 13.6186 4.89383 12.8891 5.76352 12.4994L10.4014 10.4211C10.6176 10.3242 10.7087 10.0821 10.6049 9.88025C10.5209 9.71681 10.3307 9.62536 10.1393 9.65629L4.9768 10.4905C3.92738 10.66 2.8512 10.3896 2.0349 9.7511L0.404008 8.47548C0.00668085 8.1647 -0.0454898 7.61214 0.287482 7.24132C0.449427 7.06094 0.682308 6.94897 0.933672 6.93061L5.91653 6.56665C6.26856 6.54094 6.57534 6.33301 6.71048 6.02855L8.63278 1.6976C8.83118 1.25059 9.38027 1.03834 9.8592 1.22352C10.0892 1.31243 10.2719 1.48296 10.3671 1.6976L12.2894 6.02855C12.4246 6.33301 12.7314 6.54094 13.0834 6.56665L18.0937 6.93262C18.6105 6.97036 18.9966 7.392 18.9561 7.87437C18.9367 8.10641 18.8191 8.32169 18.6293 8.47269L14.8083 11.5131C14.5392 11.7271 14.4219 12.0641 14.5046 12.3848L15.6793 16.9395C15.8007 17.41 15.4904 17.8831 14.9865 17.9963C14.7443 18.0508 14.4888 18.013 14.2764 17.8916L9.99029 15.4409C9.68939 15.2689 9.31052 15.2689 9.00963 15.4409Z" fill="url(#paint1_linear_2004_1111)"/>
<g style="mix-blend-mode:overlay">
<path fill-rule="evenodd" clip-rule="evenodd" d="M9.00963 15.4409L4.75841 17.8717C4.31636 18.1244 3.73848 17.9948 3.46769 17.5822C3.33542 17.3807 3.29599 17.1379 3.35833 16.9089L4.01642 14.4913C4.25397 13.6186 4.89383 12.8891 5.76352 12.4994L10.4014 10.4211C10.6176 10.3242 10.7087 10.0821 10.6049 9.88025C10.5209 9.71681 10.3307 9.62536 10.1393 9.65629L4.9768 10.4905C3.92738 10.66 2.8512 10.3896 2.0349 9.7511L0.404008 8.47548C0.00668085 8.1647 -0.0454898 7.61214 0.287482 7.24132C0.449427 7.06094 0.682308 6.94897 0.933672 6.93061L5.91653 6.56665C6.26856 6.54094 6.57534 6.33301 6.71048 6.02855L8.63278 1.6976C8.83118 1.25059 9.38027 1.03834 9.8592 1.22352C10.0892 1.31243 10.2719 1.48296 10.3671 1.6976L12.2894 6.02855C12.4246 6.33301 12.7314 6.54094 13.0834 6.56665L18.0937 6.93262C18.6105 6.97036 18.9966 7.392 18.9561 7.87437C18.9367 8.10641 18.8191 8.32169 18.6293 8.47269L14.8083 11.5131C14.5392 11.7271 14.4219 12.0641 14.5046 12.3848L15.6793 16.9395C15.8007 17.41 15.4904 17.8831 14.9865 17.9963C14.7443 18.0508 14.4888 18.013 14.2764 17.8915L9.99029 15.4409C9.68939 15.2689 9.31053 15.2689 9.00963 15.4409Z" fill="url(#paint2_linear_2004_1111)"/>
</g>
</g>
<defs>
<linearGradient id="paint0_linear_2004_1111" x1="-0.000121717" y1="0.999969" x2="18.9999" y2="18" gradientUnits="userSpaceOnUse">
<stop stop-color="white" />
<stop offset="5%" stop-color="#BD9EFF" />
<stop offset="100%" stop-color="#8B5ADA" stop-opacity=".5" />
</linearGradient>
<linearGradient id="paint1_linear_2004_1111" x1="-0.000121717" y1="0.999969" x2="18.9999" y2="18" gradientUnits="userSpaceOnUse">
<stop stop-color="white" />
<stop offset="5%" stop-color="#BD9EFF" />
<stop offset="100%" stop-color="#8B5ADA" stop-opacity=".5" />
</linearGradient>
<linearGradient id="paint2_linear_2004_1111" x1="-0.000121717" y1="0.999969" x2="18.9999" y2="18" gradientUnits="userSpaceOnUse">
<stop stop-color="white" />
<stop offset="5%" stop-color="#BD9EFF" />
<stop offset="100%" stop-color="#8B5ADA" stop-opacity=".5" />
</linearGradient>
<clipPath id="clip0_2004_1111">
<rect width="19" height="19" fill="white"/>
</clipPath>
</defs>
</svg>
