<svg id="svg-star" viewBox="0 0 12 12" fill="none" xmlns="http://www.w3.org/2000/svg">
<g clip-path="url(#clip0_326_18584)">
<path fill-rule="evenodd" clip-rule="evenodd" d="M5.69029 9.75216L3.00531 11.2874C2.72612 11.447 2.36114 11.3651 2.19011 11.1046C2.10657 10.9773 2.08167 10.8239 2.12104 10.6793L2.53668 9.1524C2.68671 8.6012 3.09083 8.14048 3.64011 7.89433L6.5693 6.58173C6.70586 6.52054 6.76341 6.36761 6.69785 6.24015C6.64475 6.13693 6.52467 6.07917 6.40379 6.0987L3.14324 6.62555C2.48044 6.73265 1.80075 6.56182 1.28519 6.15858L0.255157 5.35293C0.00421306 5.15665 -0.0287368 4.80766 0.181561 4.57346C0.283843 4.45954 0.430925 4.38882 0.589681 4.37722L3.73675 4.14735C3.95908 4.13111 4.15284 3.99979 4.23819 3.8075L5.45228 1.07216C5.57758 0.789842 5.92437 0.655787 6.22686 0.77274C6.37209 0.828896 6.48749 0.9366 6.54766 1.07216L7.76175 3.8075C7.84709 3.99979 8.04085 4.13111 8.26318 4.14735L11.4276 4.37849C11.754 4.40233 11.9978 4.66862 11.9723 4.97328C11.96 5.11983 11.8857 5.2558 11.7659 5.35117L9.35261 7.27142C9.18264 7.40661 9.10858 7.6194 9.16078 7.82198L9.90273 10.6986C9.97935 10.9958 9.78341 11.2946 9.46515 11.3661C9.31215 11.4005 9.15084 11.3766 9.0167 11.2999L6.30965 9.75216C6.11961 9.64352 5.88033 9.64352 5.69029 9.75216Z" fill="#31313A"/>
</g>
<defs>
<clipPath id="clip0_326_18584">
<rect width="12" height="12" fill="white"/>
</clipPath>
</defs>
</svg>
