<svg width="350" height="200" viewBox="0 0 350 200" fill="none" xmlns="http://www.w3.org/2000/svg">
<mask id="mask0_64_3078" style="mask-type:alpha" maskUnits="userSpaceOnUse" x="0" y="0" width="350" height="200">
<rect x="0.5" y="0.5" width="349" height="199" rx="24.5" fill="url(#paint0_linear_64_3078)" stroke="url(#paint1_linear_64_3078)"/>
</mask>
<g mask="url(#mask0_64_3078)">
<path fill-rule="evenodd" clip-rule="evenodd" d="M297.987 147.993L267.661 203.762C264.507 209.56 257.25 211.711 251.451 208.565C248.619 207.028 246.529 204.413 245.655 201.312L236.437 168.581C233.109 156.766 235.195 144.079 242.131 133.94L279.124 79.8688C280.849 77.3481 280.204 73.9092 277.683 72.1879C275.642 70.7939 272.921 70.9251 271.021 72.5091L219.761 115.234C209.341 123.919 195.627 127.58 182.271 125.241L155.588 120.568C149.087 119.43 144.745 113.239 145.891 106.74C146.448 103.58 148.253 100.775 150.901 98.9573L203.383 62.9277C207.091 60.3823 209.058 55.974 208.473 51.519L200.158 -11.8511C199.3 -18.3917 203.91 -24.3942 210.455 -25.2582C213.597 -25.673 216.775 -24.8234 219.289 -22.8963L270.011 15.9898C273.577 18.7236 278.378 19.2245 282.436 17.2862L340.197 -10.3012C346.154 -13.1468 353.287 -10.6282 356.129 -4.67606C357.496 -1.81316 357.666 1.47765 356.602 4.46852L335.177 64.6954C333.667 68.9361 334.67 73.6602 337.768 76.9205L381.77 123.209C386.315 127.99 386.117 135.551 381.331 140.097C379.03 142.282 375.955 143.463 372.785 143.382L308.804 141.748C304.312 141.633 300.133 144.046 297.987 147.993Z" fill="url(#paint2_linear_64_3078)" fill-opacity="0.03"/>
<path d="M146.383 106.827L145.891 106.74L146.383 106.827C146.917 103.799 148.647 101.111 151.184 99.3696L203.666 63.3399C207.529 60.6882 209.578 56.0956 208.969 51.4539L200.654 -11.9162C199.831 -18.1827 204.248 -23.9346 210.52 -24.7625C213.531 -25.16 216.576 -24.3459 218.985 -22.4995L269.707 16.3866C273.422 19.2349 278.424 19.7566 282.652 17.7373L340.412 -9.85002C346.121 -12.5768 352.955 -10.1631 355.678 -4.46064C356.988 -1.71783 357.15 1.43514 356.131 4.30099L334.706 64.5278C333.133 68.9459 334.178 73.8681 337.406 77.2649L337.768 76.9205L337.406 77.265L381.408 123.553C385.762 128.134 385.573 135.378 380.987 139.734L381.331 140.097L380.986 139.734C378.782 141.829 375.836 142.96 372.797 142.882L372.785 143.382L372.797 142.882L308.816 141.248L308.804 141.748L308.816 141.248C304.137 141.129 299.784 143.642 297.547 147.754L267.222 203.523C264.2 209.079 257.246 211.14 251.69 208.126C248.976 206.653 246.973 204.147 246.137 201.177L236.918 168.446C233.63 156.773 235.691 144.239 242.544 134.222L279.537 80.1512C281.417 77.4026 280.714 73.6523 277.965 71.775C275.739 70.2548 272.773 70.3981 270.701 72.1251L219.441 114.85C209.134 123.441 195.569 127.062 182.358 124.748L155.674 120.076C149.445 118.985 145.286 113.053 146.383 106.827Z" stroke="url(#paint3_linear_64_3078)" stroke-opacity="0.25"/>
</g>
<defs>
<linearGradient id="paint0_linear_64_3078" x1="0" y1="0" x2="350" y2="200" gradientUnits="userSpaceOnUse">
<stop stop-color="#694FFF"/>
<stop offset="1" stop-color="#4024AF"/>
</linearGradient>
<linearGradient id="paint1_linear_64_3078" x1="0" y1="0" x2="350" y2="200" gradientUnits="userSpaceOnUse">
<stop stop-color="#674EFC"/>
<stop offset="0.5" stop-color="#8C75FF"/>
<stop offset="1" stop-color="#4226B4"/>
</linearGradient>
<linearGradient id="paint2_linear_64_3078" x1="329.364" y1="1.58568" x2="97.3643" y2="180.586" gradientUnits="userSpaceOnUse">
<stop stop-color="white"/>
<stop offset="1" stop-color="white" stop-opacity="0"/>
</linearGradient>
<linearGradient id="paint3_linear_64_3078" x1="161.364" y1="36.5857" x2="358.72" y2="29.7883" gradientUnits="userSpaceOnUse">
<stop stop-color="#674EFC" stop-opacity="0"/>
<stop offset="0.52" stop-color="#8C75FF"/>
<stop offset="1" stop-color="#4226B4" stop-opacity="0"/>
</linearGradient>
</defs>
</svg>
